<svg xmlns="http://www.w3.org/2000/svg" viewBox="0 0 100 100">
  <defs>
    <linearGradient id="grad" x1="0%" y1="0%" x2="100%" y2="100%">
      <stop offset="0%" style="stop-color:#3b82f6;stop-opacity:1" />
      <stop offset="100%" style="stop-color:#1d4ed8;stop-opacity:1" />
    </linearGradient>
  </defs>
  <rect width="100" height="100" rx="20" fill="url(#grad)"/>
  <path d="M65 75c-2 2-5 2-8 0l-12-8c-3-2-4-5-3-8l4-10c1-3 0-6-3-8l-8-5c-2-2-5-2-7 0l-6 5c-2 2-2 5 0 8l12 20c8 13 18 23 31 31l6 4c3 2 6 2 8 0l10-10c2-2 2-5 0-7l-5-8c-2-3-5-4-8-3l-10 4c-3 1-6 0-8-3l-8-8c-2-2-2-5 0-7l6-6c2-2 5-2 7 0l5 5c2 2 2 5 0 7l-3 3z" fill="white" opacity="0.3"/>
  <path d="M50 25c-8 0-15 7-15 15v20c0 8 7 15 15 15s15-7 15-15V40c0-8-7-15-15-15zm0 5c5.5 0 10 4.5 10 10v20c0 5.5-4.5 10-10 10s-10-4.5-10-10V40c0-5.5 4.5-10 10-10z" fill="white"/>
  <circle cx="50" cy="45" r="3" fill="white"/>
</svg>
